<svg width="48" height="89" viewBox="0 0 48 89" fill="none" xmlns="http://www.w3.org/2000/svg">
<g opacity="0.4" clip-path="url(#clip0_16_2)">
<path d="M17.946 28.6467C17.8546 28.6222 17.7697 28.5741 17.7005 28.5049C17.6254 28.4298 15.8423 26.6381 14.1955 24.2169C13.2194 22.7819 12.497 21.4245 12.0485 20.1824C11.4681 18.5752 11.3428 17.1452 11.6761 15.9321C12.0639 14.5207 12.9266 13.3267 14.1054 12.5701C15.304 11.8009 16.69 11.5717 18.0081 11.9249C19.6973 12.3775 20.9882 13.7376 21.4754 15.4747C22.7659 14.214 24.5639 13.6815 26.2531 14.1342C27.4984 14.4678 28.551 15.2917 29.2172 16.4541C29.9483 17.7297 30.1357 19.3054 29.7313 20.7772C29.3986 21.9881 28.5668 23.1595 27.2589 24.2588C26.2473 25.1091 24.9446 25.9234 23.3869 26.6791C20.7579 27.9544 18.3331 28.6186 18.2311 28.6463C18.1361 28.672 18.0378 28.6713 17.946 28.6467Z" fill="#FAFF00"/>
</g>
<g opacity="0.2" clip-path="url(#clip1_16_2)">
<path d="M23.9517 15.6706C23.8867 15.7081 23.8122 15.7288 23.7346 15.7288C23.6504 15.7288 21.6467 15.7239 19.3666 15.2899C18.0152 15.0327 16.8495 14.6767 15.9019 14.2319C14.6757 13.6564 13.8039 12.9251 13.3108 12.0584C12.737 11.0499 12.5513 9.8971 12.788 8.81234C13.0287 7.7093 13.6771 6.80402 14.6139 6.2632C15.8144 5.57008 17.3003 5.60886 18.547 6.30944C18.5637 4.87945 19.273 3.57324 20.4735 2.88012C21.3585 2.36918 22.4103 2.24097 23.4352 2.51907C24.56 2.82424 25.5482 3.60243 26.1465 4.65402C26.6388 5.51923 26.8291 6.64206 26.7122 7.99129C26.6218 9.03487 26.348 10.2215 25.8985 11.5182C25.1397 13.7065 24.1529 15.4379 24.1113 15.5106C24.0724 15.5782 24.0169 15.6329 23.9517 15.6706Z" fill="#FAFF00"/>
</g>
<g opacity="0.6" clip-path="url(#clip2_16_2)">
<path d="M27.6808 42.3516C27.5701 42.4156 27.4428 42.4509 27.3105 42.4509C27.1669 42.4509 23.7483 42.4426 19.858 41.7021C17.5523 41.2632 15.5634 40.6559 13.9466 39.897C11.8545 38.915 10.3672 37.6673 9.52587 36.1886C8.54691 34.4679 8.2301 32.5011 8.63391 30.6503C9.04456 28.7684 10.1509 27.2238 11.7491 26.3011C13.7974 25.1185 16.3325 25.1847 18.4597 26.38C18.4881 23.9402 19.6983 21.7116 21.7466 20.529C23.2565 19.6573 25.051 19.4385 26.7997 19.913C28.7187 20.4337 30.4048 21.7614 31.4257 23.5556C32.2655 25.0318 32.5902 26.9475 32.3908 29.2495C32.2365 31.03 31.7694 33.0545 31.0024 35.2669C29.7079 39.0005 28.0242 41.9546 27.9531 42.0786C27.8869 42.194 27.7922 42.2873 27.6808 42.3516Z" fill="#FAFF00"/>
</g>
<g opacity="0.8" clip-path="url(#clip3_16_2)">
<path d="M13.4818 57.606C13.3553 57.533 13.2477 57.4273 13.1721 57.2964C13.09 57.1543 11.1457 53.7674 9.65619 49.4958C8.77338 46.9641 8.23819 44.6496 8.06554 42.6167C7.84208 39.9861 8.2269 37.802 9.20923 36.1251C10.3524 34.1738 12.1172 32.737 14.1788 32.0793C16.2752 31.4107 18.4351 31.6229 20.2608 32.677C22.6007 34.0279 23.9832 36.5737 24.0157 39.3609C26.4456 37.9955 29.3416 37.9198 31.6815 39.2707C33.4063 40.2666 34.6477 41.9169 35.1771 43.9179C35.7581 46.1139 35.4077 48.5403 34.2157 50.575C33.235 52.249 31.5253 53.6644 29.134 54.782C27.2844 55.6463 25.0147 56.3406 22.388 56.8454C17.9549 57.6973 14.0707 57.7189 13.9075 57.7194C13.7554 57.7198 13.609 57.6795 13.4818 57.606Z" fill="#FAFF00"/>
</g>
<g clip-path="url(#clip4_16_2)">
<path d="M31.0777 77.4356C30.9263 77.523 30.7524 77.5712 30.5715 77.5712C30.3751 77.5713 25.702 77.5598 20.3842 76.5476C17.2323 75.9477 14.5136 75.1176 12.3036 74.0802C9.44376 72.7378 7.41065 71.0323 6.26054 69.0109C4.92234 66.6588 4.48928 63.9702 5.04126 61.4403C5.6026 58.8677 7.1149 56.7564 9.29961 55.4951C12.0995 53.8785 15.5649 53.969 18.4727 55.6029C18.5116 52.2678 20.1659 49.2214 22.9658 47.6049C25.0298 46.4132 27.4828 46.1142 29.8732 46.7628C32.4965 47.4745 34.8013 49.2895 36.1967 51.7421C37.3448 53.7599 37.7886 56.3787 37.516 59.5254C37.3052 61.9593 36.6666 64.7267 35.6181 67.7509C33.8486 72.8547 31.5471 76.8929 31.4499 77.0623C31.3594 77.2201 31.2299 77.3477 31.0777 77.4356Z" fill="#FAFF00"/>
</g>
<defs>
<clipPath id="clip0_16_2">
<rect width="18.6942" height="18.6942" fill="white" transform="translate(13.4288 9.39026) rotate(15)"/>
</clipPath>
<clipPath id="clip1_16_2">
<rect width="14.8184" height="14.8184" fill="white" transform="translate(10.6265 7.40919) rotate(-30)"/>
</clipPath>
<clipPath id="clip2_16_2">
<rect width="25.2825" height="25.2825" fill="white" transform="translate(4.94601 28.2563) rotate(-30)"/>
</clipPath>
<clipPath id="clip3_16_2">
<rect width="28.8815" height="28.8815" fill="white" transform="translate(14.4408 27.0635) rotate(30)"/>
</clipPath>
<clipPath id="clip4_16_2">
<rect width="34.5603" height="34.5603" fill="white" transform="translate(3.8147e-05 58.1678) rotate(-30)"/>
</clipPath>
</defs>
</svg>
