<svg width="42" height="42" viewBox="0 0 42 42" fill="none" xmlns="http://www.w3.org/2000/svg">
<rect width="42" height="42" rx="21" fill="#FF005C"/>
<path d="M30.2547 14.1186C29.1159 12.8834 27.5532 12.2031 25.8543 12.2031C24.5844 12.2031 23.4214 12.6046 22.3975 13.3963C21.8809 13.796 21.4127 14.2849 21 14.8556C20.5874 14.2851 20.1191 13.796 19.6023 13.3963C18.5786 12.6046 17.4156 12.2031 16.1457 12.2031C14.4468 12.2031 12.8839 12.8834 11.7451 14.1186C10.6199 15.3393 10 17.0071 10 18.8148C10 20.6754 10.6934 22.3785 12.182 24.1748C13.5137 25.7816 15.4277 27.4127 17.6441 29.3015C18.4009 29.9465 19.2588 30.6777 20.1495 31.4565C20.3848 31.6626 20.6868 31.7761 21 31.7761C21.313 31.7761 21.6152 31.6626 21.8501 31.4568C22.7409 30.6778 23.5993 29.9464 24.3564 29.301C26.5725 27.4126 28.4865 25.7816 29.8182 24.1746C31.3068 22.3785 32 20.6754 32 18.8146C32 17.0071 31.3801 15.3393 30.2547 14.1186Z" fill="black"/>
</svg>
