<svg width="30" height="30" viewBox="0 0 30 30" fill="none" xmlns="http://www.w3.org/2000/svg">
<path d="M17.8008 9.31055H12.2051C10.6113 9.31055 9.31055 10.6055 9.31055 12.2051V17.8008C9.31055 19.3945 10.6055 20.6953 12.2051 20.6953H17.8008C19.3945 20.6953 20.6953 19.4004 20.6953 17.8008V12.2051C20.6895 10.6055 19.3945 9.31055 17.8008 9.31055ZM15 18.7441C12.9375 18.7441 11.2559 17.0625 11.2559 15C11.2559 12.9375 12.9375 11.2559 15 11.2559C17.0625 11.2559 18.7441 12.9375 18.7441 15C18.7441 17.0625 17.0625 18.7441 15 18.7441ZM18.9316 11.6719C18.5801 11.6719 18.2988 11.3906 18.2988 11.0391C18.2988 10.6875 18.5801 10.4063 18.9316 10.4063C19.2832 10.4063 19.5645 10.6875 19.5645 11.0391C19.5645 11.3906 19.2832 11.6719 18.9316 11.6719Z" fill="white"/>
<path d="M17.276 15.0277C17.2911 13.7721 16.2854 12.742 15.0299 12.727C13.7743 12.7119 12.7442 13.7175 12.7291 14.9731C12.7141 16.2287 13.7197 17.2588 14.9753 17.2738C16.2309 17.2889 17.2609 16.2833 17.276 15.0277Z" fill="white"/>
<path d="M15 1.81641C7.7168 1.81641 1.81641 7.7168 1.81641 15C1.81641 22.2832 7.7168 28.1836 15 28.1836C22.2832 28.1836 28.1836 22.2832 28.1836 15C28.1836 7.7168 22.2832 1.81641 15 1.81641ZM22.3242 17.8008C22.3242 20.2969 20.2969 22.3242 17.8008 22.3242H12.2051C9.70898 22.3242 7.68164 20.2969 7.68164 17.8008V12.2051C7.68164 9.70898 9.70898 7.68164 12.2051 7.68164H17.8008C20.2969 7.68164 22.3242 9.70898 22.3242 12.2051V17.8008Z" fill="white"/>
</svg>
