<svg width="42" height="42" viewBox="0 0 42 42" fill="none" xmlns="http://www.w3.org/2000/svg">
<g clip-path="url(#clip0_1_179)">
<path d="M10.2048 2.58751C7.9203 1.80054 6.60591 0.941695 5.87365 0.30542C5.40924 2.60663 4.96583 6.37867 5.90917 8.58865C8.05541 7.21249 9.5936 5.06559 10.2048 2.58751Z" fill="#1B1B1B"/>
<path d="M36.0908 8.58857C37.0342 6.37883 36.5908 2.60704 36.1264 0.30542C35.3942 0.941777 34.0799 1.80062 31.7953 2.58751C32.4066 5.06592 33.9447 7.21265 36.0908 8.58857Z" fill="#1B1B1B"/>
<path d="M21 20.044C23.067 20.044 24.7486 18.3624 24.7486 16.2955C24.7486 15.7622 24.6362 15.2421 24.4212 14.7632H22.2306V16.5142H19.7695V14.7632H17.5788C17.3639 15.242 17.2515 15.7621 17.2515 16.2955C17.2515 18.3624 18.9331 20.044 21 20.044Z" fill="#1B1B1B"/>
<path d="M36.9878 34.829C36.3446 32.3488 36.0319 30.0876 36.0319 27.9162V15.0319C36.0319 13.6972 35.8575 12.3785 35.5135 11.104C32.2327 9.31164 29.936 6.14249 29.2539 2.46717C26.8018 0.851785 23.9592 0 21 0C18.0407 0 15.1983 0.851621 12.7462 2.46708C12.0643 6.14199 9.76744 9.31147 6.48647 11.104C6.14249 12.3786 5.96808 13.6974 5.96808 15.0319V27.9162C5.96808 30.0876 5.65535 32.3487 5.01219 34.829C4.72317 35.9436 5.77004 37.1629 6.92914 37.6026C7.71513 37.9004 8.79251 37.9801 9.46242 36.6652L11.6553 37.7824C11.2537 38.5705 11.2949 39.2456 11.7814 39.8463C12.4535 40.6765 13.8396 41.1268 14.8717 40.8504C15.6183 40.6504 16.0485 40.1284 16.1868 39.2548L18.6176 39.6398C18.4792 40.5133 18.7271 41.1427 19.3752 41.5636C20.2712 42.1455 21.7287 42.1455 22.6246 41.5636C23.2728 41.1427 23.5206 40.5133 23.3822 39.6398L25.813 39.2548C25.9514 40.1284 26.3816 40.6504 27.1282 40.8504C28.1601 41.1272 29.5463 40.6763 30.2185 39.8463C30.705 39.2456 30.7461 38.5705 30.3446 37.7824L32.5374 36.6652C33.2073 37.98 34.2849 37.9007 35.0707 37.6026C36.23 37.1629 37.2769 35.9436 36.9878 34.829ZM26.778 29.7855H15.222V27.3244H26.778V29.7855ZM29.6811 14.7631H27.0181C27.1444 15.2602 27.2097 15.7741 27.2097 16.2954C27.2097 19.7194 24.4241 22.505 21 22.505C17.5761 22.505 14.7905 19.7194 14.7905 16.2954C14.7905 15.7741 14.8558 15.2602 14.982 14.7631H12.3189V12.302H29.6812V14.7631H29.6811Z" fill="#1B1B1B"/>
</g>
<defs>
<clipPath id="clip0_1_179">
<rect width="42" height="42" fill="white"/>
</clipPath>
</defs>
</svg>
