<svg width="30" height="30" viewBox="0 0 30 30" fill="none" xmlns="http://www.w3.org/2000/svg">
<path d="M15 1.71429C12.3723 1.71429 9.80367 2.49348 7.61885 3.95333C5.43403 5.41319 3.73116 7.48813 2.7256 9.91578C1.72004 12.3434 1.45693 15.0147 1.96957 17.5919C2.4822 20.1691 3.74754 22.5364 5.60558 24.3944C7.46362 26.2525 9.83091 27.5178 12.4081 28.0304C14.9853 28.5431 17.6566 28.28 20.0842 27.2744C22.5119 26.2688 24.5868 24.566 26.0467 22.3811C27.5065 20.1963 28.2857 17.6277 28.2857 15C28.2857 11.4764 26.886 8.09714 24.3944 5.60558C21.9029 3.11403 18.5236 1.71429 15 1.71429ZM20.9891 13.5193C19.8038 13.6504 18.7882 13.182 17.7725 12.5841C17.7725 12.682 17.8022 15.7167 17.7515 17.1642C17.7008 18.6518 17.1694 19.9612 16.0034 20.9384C13.5316 23.0134 10.0231 21.8928 9.18575 18.72C8.73124 16.9911 9.12631 15.4335 10.4829 14.2011C11.2468 13.5019 12.189 13.1907 13.1994 13.0613C13.4162 13.0334 13.6347 13.0211 13.869 13.0001V15.3496C13.5718 15.423 13.2711 15.4877 12.9757 15.5751C12.7707 15.6343 12.5708 15.7097 12.3778 15.8006C12.1086 15.9217 11.8708 16.1032 11.683 16.3309C11.4952 16.5587 11.3623 16.8266 11.2947 17.114C11.2271 17.4013 11.2265 17.7004 11.2931 17.988C11.3597 18.2756 11.4916 18.544 11.6786 18.7724C11.9034 19.0834 12.2093 19.3267 12.5628 19.4758C12.9163 19.625 13.304 19.6744 13.6837 19.6185C14.4476 19.5259 14.9266 19.0451 15.2098 18.3546C15.4056 17.8082 15.4906 17.2282 15.4597 16.6485C15.4493 13.7955 15.4493 10.9444 15.444 8.09143C15.4465 8.06209 15.4505 8.03291 15.4563 8.00402H17.7376C17.9928 9.91297 18.9612 11.1227 20.9891 11.294V13.5193Z" fill="white"/>
</svg>
