<svg width="234" height="21" viewBox="0 0 234 21" fill="none" xmlns="http://www.w3.org/2000/svg">
<path d="M221.035 16.6145L226.998 10.6359L221.035 4.65721C220.548 4.16507 220.273 3.50106 220.27 2.80804C220.271 2.29008 220.425 1.78397 220.712 1.3534C220.999 0.922844 221.407 0.587078 221.884 0.388371C222.361 0.189663 222.886 0.136894 223.393 0.236706C223.9 0.336517 224.367 0.58445 224.733 0.949293L233.717 9.95561C233.807 10.0447 233.878 10.1506 233.926 10.2674C233.975 10.3842 234 10.5094 234 10.6359C234 10.7624 233.975 10.8876 233.926 11.0043C233.878 11.1211 233.807 11.2271 233.717 11.3161L224.733 20.3225C224.235 20.7739 223.583 21.0162 222.911 20.9992C222.24 20.9821 221.601 20.7072 221.126 20.2311C220.651 19.755 220.377 19.1141 220.36 18.4411C220.343 17.768 220.584 17.1141 221.035 16.6145Z" fill="url(#paint0_linear_36_76)"/>
<path d="M207.305 16.6145L213.268 10.6359L207.305 4.65721C206.818 4.16508 206.543 3.50106 206.54 2.80804C206.541 2.29008 206.695 1.78397 206.982 1.35341C207.269 0.922846 207.677 0.587078 208.154 0.388371C208.631 0.189663 209.156 0.136896 209.663 0.236708C210.17 0.336517 210.637 0.58445 211.003 0.949293L219.987 9.95561C220.077 10.0447 220.148 10.1506 220.196 10.2674C220.245 10.3842 220.27 10.5094 220.27 10.6359C220.27 10.7624 220.245 10.8876 220.196 11.0043C220.148 11.1211 220.077 11.2271 219.987 11.3161L211.003 20.3225C210.505 20.7739 209.853 21.0162 209.181 20.9992C208.51 20.9821 207.871 20.7072 207.396 20.2311C206.921 19.755 206.647 19.1141 206.63 18.4411C206.613 17.768 206.854 17.1141 207.305 16.6145Z" fill="url(#paint1_linear_36_76)"/>
<path d="M193.575 16.6145L199.538 10.6359L193.575 4.65721C193.088 4.16508 192.813 3.50106 192.81 2.80804C192.811 2.29008 192.965 1.78397 193.252 1.35341C193.539 0.922846 193.947 0.58708 194.424 0.388372C194.901 0.189665 195.426 0.136896 195.933 0.236708C196.44 0.336517 196.907 0.58445 197.273 0.949293L206.257 9.95561C206.347 10.0447 206.418 10.1506 206.466 10.2674C206.515 10.3842 206.54 10.5094 206.54 10.6359C206.54 10.7624 206.515 10.8876 206.466 11.0043C206.418 11.1211 206.347 11.2271 206.257 11.3161L197.273 20.3225C196.775 20.7739 196.123 21.0162 195.451 20.9992C194.78 20.9821 194.141 20.7072 193.666 20.2311C193.191 19.755 192.917 19.1142 192.9 18.4411C192.883 17.768 193.124 17.1141 193.575 16.6145Z" fill="url(#paint2_linear_36_76)"/>
<path d="M179.845 16.6145L185.808 10.6359L179.845 4.65722C179.358 4.16508 179.083 3.50106 179.08 2.80805C179.081 2.29008 179.235 1.78397 179.522 1.35341C179.809 0.922848 180.217 0.58708 180.694 0.388372C181.171 0.189665 181.696 0.136896 182.203 0.236708C182.71 0.336519 183.177 0.58445 183.543 0.949295L192.527 9.95561C192.617 10.0447 192.688 10.1507 192.736 10.2674C192.785 10.3842 192.81 10.5094 192.81 10.6359C192.81 10.7624 192.785 10.8876 192.736 11.0043C192.688 11.1211 192.617 11.2271 192.527 11.3161L183.543 20.3225C183.045 20.7739 182.393 21.0162 181.721 20.9992C181.05 20.9821 180.411 20.7072 179.936 20.2311C179.461 19.755 179.186 19.1142 179.17 18.4411C179.153 17.768 179.394 17.1141 179.845 16.6145Z" fill="url(#paint3_linear_36_76)"/>
<path d="M166.115 16.6145L172.078 10.6359L166.115 4.65722C165.628 4.16508 165.353 3.50106 165.35 2.80805C165.351 2.29008 165.505 1.78397 165.792 1.35341C166.079 0.922848 166.487 0.587082 166.964 0.388374C167.441 0.189667 167.966 0.136896 168.473 0.236708C168.98 0.336519 169.447 0.58445 169.813 0.949295L178.797 9.95561C178.887 10.0447 178.958 10.1507 179.006 10.2674C179.055 10.3842 179.08 10.5094 179.08 10.6359C179.08 10.7624 179.055 10.8876 179.006 11.0043C178.958 11.1211 178.887 11.2271 178.797 11.3161L169.813 20.3225C169.315 20.7739 168.663 21.0162 167.991 20.9992C167.32 20.9821 166.681 20.7072 166.206 20.2311C165.731 19.755 165.456 19.1142 165.44 18.4411C165.423 17.768 165.664 17.1141 166.115 16.6145Z" fill="url(#paint4_linear_36_76)"/>
<path d="M152.385 16.6145L158.348 10.6359L152.385 4.65722C151.898 4.16508 151.623 3.50106 151.62 2.80805C151.621 2.29008 151.775 1.78397 152.062 1.35341C152.349 0.922848 152.757 0.587082 153.234 0.388374C153.711 0.189667 154.236 0.136898 154.743 0.23671C155.25 0.336521 155.717 0.584452 156.083 0.949295L165.067 9.95561C165.157 10.0447 165.228 10.1507 165.276 10.2674C165.325 10.3842 165.35 10.5094 165.35 10.6359C165.35 10.7624 165.325 10.8876 165.276 11.0043C165.228 11.1211 165.157 11.2271 165.067 11.3161L156.083 20.3225C155.585 20.7739 154.933 21.0162 154.261 20.9992C153.59 20.9821 152.951 20.7072 152.476 20.2311C152.001 19.755 151.726 19.1142 151.71 18.4411C151.693 17.768 151.934 17.1141 152.385 16.6145Z" fill="url(#paint5_linear_36_76)"/>
<path d="M138.655 16.6145L144.618 10.6359L138.655 4.65722C138.168 4.16508 137.893 3.50106 137.89 2.80805C137.891 2.29008 138.045 1.78397 138.332 1.35341C138.619 0.922848 139.027 0.587084 139.504 0.388376C139.981 0.189669 140.506 0.136898 141.013 0.23671C141.52 0.336521 141.986 0.584452 142.353 0.949295L151.337 9.95561C151.427 10.0447 151.498 10.1507 151.546 10.2674C151.595 10.3842 151.62 10.5094 151.62 10.6359C151.62 10.7624 151.595 10.8876 151.546 11.0043C151.498 11.1211 151.427 11.2271 151.337 11.3161L142.353 20.3225C141.855 20.7739 141.203 21.0162 140.531 20.9992C139.86 20.9821 139.221 20.7072 138.746 20.2311C138.271 19.755 137.996 19.1142 137.979 18.4411C137.963 17.768 138.204 17.1141 138.655 16.6145Z" fill="url(#paint6_linear_36_76)"/>
<path d="M124.925 16.6145L130.888 10.6359L124.925 4.65722C124.438 4.16508 124.163 3.50106 124.16 2.80805C124.161 2.29008 124.315 1.78397 124.602 1.35341C124.889 0.922848 125.297 0.587084 125.774 0.388376C126.251 0.189669 126.776 0.136898 127.283 0.23671C127.79 0.336521 128.256 0.584452 128.623 0.949295L137.607 9.95561C137.697 10.0447 137.768 10.1507 137.816 10.2674C137.865 10.3842 137.89 10.5094 137.89 10.6359C137.89 10.7624 137.865 10.8876 137.816 11.0043C137.768 11.1211 137.697 11.2271 137.607 11.3161L128.623 20.3225C128.125 20.7739 127.473 21.0162 126.801 20.9992C126.13 20.9821 125.491 20.7072 125.016 20.2311C124.541 19.755 124.266 19.1142 124.249 18.4411C124.233 17.768 124.474 17.1141 124.925 16.6145Z" fill="url(#paint7_linear_36_76)"/>
<path d="M111.194 16.6145L117.158 10.6359L111.194 4.65722C110.708 4.16508 110.433 3.50106 110.43 2.80805C110.431 2.29009 110.585 1.78397 110.872 1.35341C111.159 0.92285 111.567 0.587084 112.044 0.388376C112.521 0.189669 113.046 0.1369 113.553 0.236712C114.06 0.336523 114.526 0.584454 114.893 0.949297L123.877 9.95562C123.967 10.0447 124.038 10.1507 124.086 10.2674C124.135 10.3842 124.16 10.5094 124.16 10.6359C124.16 10.7624 124.135 10.8876 124.086 11.0043C124.038 11.1211 123.967 11.2271 123.877 11.3161L114.893 20.3225C114.395 20.7739 113.743 21.0162 113.071 20.9992C112.4 20.9821 111.761 20.7072 111.286 20.2311C110.811 19.755 110.536 19.1142 110.519 18.4411C110.503 17.768 110.744 17.1141 111.194 16.6145Z" fill="url(#paint8_linear_36_76)"/>
<path d="M97.4645 16.6145L103.428 10.6359L97.4645 4.65722C96.9778 4.16508 96.7032 3.50106 96.6999 2.80805C96.7008 2.29009 96.8546 1.78397 97.1418 1.35341C97.429 0.92285 97.8368 0.587084 98.314 0.388376C98.7911 0.189669 99.3163 0.1369 99.8232 0.236712C100.33 0.336523 100.796 0.584454 101.163 0.949297L110.147 9.95562C110.237 10.0447 110.308 10.1507 110.356 10.2674C110.405 10.3842 110.43 10.5094 110.43 10.6359C110.43 10.7624 110.405 10.8876 110.356 11.0043C110.308 11.1211 110.237 11.2271 110.147 11.3161L101.163 20.3225C100.665 20.7739 100.013 21.0162 99.3412 20.9992C98.6698 20.9821 98.0306 20.7072 97.5556 20.2311C97.0807 19.755 96.8064 19.1142 96.7895 18.4411C96.7725 17.768 97.0142 17.1141 97.4645 16.6145Z" fill="url(#paint9_linear_36_76)"/>
<path d="M83.7345 16.6145L89.6983 10.6359L83.7345 4.65722C83.2477 4.16508 82.9732 3.50106 82.9699 2.80805C82.9708 2.29009 83.1246 1.78397 83.4118 1.35341C83.699 0.922852 84.1068 0.587084 84.584 0.388376C85.0611 0.189669 85.5863 0.136902 86.0932 0.236713C86.6002 0.336523 87.0665 0.584455 87.4332 0.949299L96.4172 9.95562C96.5068 10.0447 96.5779 10.1507 96.6264 10.2674C96.6749 10.3842 96.6999 10.5094 96.6999 10.6359C96.6999 10.7624 96.6749 10.8876 96.6264 11.0043C96.5779 11.1211 96.5068 11.2271 96.4172 11.3161L87.4332 20.3225C86.9349 20.7739 86.2826 21.0162 85.6112 20.9992C84.9398 20.9821 84.3006 20.7072 83.8256 20.2311C83.3507 19.755 83.0764 19.1142 83.0595 18.4411C83.0425 17.768 83.2842 17.1141 83.7345 16.6145Z" fill="url(#paint10_linear_36_76)"/>
<path d="M82.6872 9.76811C82.7768 9.85718 82.8479 9.96315 82.8964 10.0799C82.9449 10.1967 82.9699 10.3219 82.9699 10.4484C82.9699 10.5749 82.9449 10.7001 82.8964 10.8168C82.8479 10.9336 82.7768 11.0396 82.6872 11.1286L73.7032 20.135C73.4651 20.399 73.176 20.6118 72.8534 20.7604C72.5308 20.9089 72.1814 20.9902 71.8265 20.9992C71.4715 21.0081 71.1185 20.9447 70.7888 20.8127C70.4591 20.6806 70.1596 20.4828 69.9086 20.2311C69.6575 19.9794 69.4602 19.6792 69.3285 19.3487C69.1967 19.0182 69.1334 18.6642 69.1424 18.3084C69.1514 17.9526 69.2324 17.6024 69.3806 17.2789C69.5288 16.9555 69.7411 16.6657 70.0045 16.427L75.9301 10.4484L69.9662 4.46971C69.4795 3.97757 69.205 3.31356 69.2016 2.62054C69.2026 2.10258 69.3563 1.59646 69.6435 1.1659C69.9308 0.735342 70.3386 0.399576 70.8158 0.200869C71.2929 0.00216103 71.818 -0.0506077 72.325 0.0492039C72.832 0.149015 73.2982 0.396946 73.665 0.761789L82.6872 9.76811Z" fill="url(#paint11_linear_36_76)"/>
<path d="M68.8589 9.76811C68.9484 9.85718 69.0195 9.96315 69.0681 10.0799C69.1166 10.1967 69.1416 10.3219 69.1416 10.4484C69.1416 10.5749 69.1166 10.7001 69.0681 10.8168C69.0195 10.9336 68.9484 11.0396 68.8589 11.1286L59.8749 20.135C59.6368 20.399 59.3477 20.6118 59.0251 20.7604C58.7025 20.9089 58.3531 20.9902 57.9981 20.9992C57.6432 21.0082 57.2902 20.9447 56.9605 20.8127C56.6308 20.6806 56.3313 20.4828 56.0803 20.2311C55.8292 19.9794 55.6318 19.6792 55.5001 19.3487C55.3684 19.0182 55.3051 18.6642 55.3141 18.3084C55.3231 17.9526 55.4041 17.6024 55.5523 17.2789C55.7005 16.9555 55.9127 16.6657 56.1762 16.427L62.1018 10.4484L56.1379 4.46971C55.6512 3.97757 55.3766 3.31356 55.3733 2.62054C55.3743 2.10258 55.528 1.59646 55.8152 1.1659C56.1024 0.735342 56.5103 0.399576 56.9874 0.200869C57.4646 0.00216103 57.9897 -0.0506058 58.4967 0.0492039C59.0037 0.149015 59.4699 0.396946 59.8367 0.761791L68.8589 9.76811Z" fill="url(#paint12_linear_36_76)"/>
<path d="M55.0305 9.76811C55.1201 9.85718 55.1912 9.96315 55.2398 10.0799C55.2883 10.1967 55.3133 10.3219 55.3133 10.4484C55.3133 10.5749 55.2883 10.7001 55.2398 10.8168C55.1912 10.9336 55.1201 11.0396 55.0305 11.1286L46.0466 20.135C45.8085 20.399 45.5194 20.6118 45.1968 20.7604C44.8741 20.9089 44.5248 20.9902 44.1698 20.9992C43.8149 21.0082 43.4619 20.9447 43.1322 20.8127C42.8025 20.6806 42.503 20.4828 42.252 20.2311C42.0009 19.9794 41.8035 19.6792 41.6718 19.3487C41.5401 19.0182 41.4768 18.6642 41.4858 18.3084C41.4948 17.9526 41.5758 17.6024 41.724 17.2789C41.8722 16.9555 42.0844 16.6657 42.3478 16.427L48.2734 10.4484L42.3096 4.46971C41.8229 3.97757 41.5483 3.31356 41.545 2.62054C41.5459 2.10258 41.6997 1.59647 41.9869 1.1659C42.2741 0.735344 42.682 0.399576 43.1591 0.200869C43.6363 0.00216103 44.1614 -0.0506058 44.6684 0.0492039C45.1754 0.149015 45.6416 0.396946 46.0083 0.761791L55.0305 9.76811Z" fill="url(#paint13_linear_36_76)"/>
<path d="M41.2022 9.76811C41.2918 9.85718 41.3629 9.96315 41.4114 10.0799C41.46 10.1967 41.4849 10.3219 41.4849 10.4484C41.4849 10.5749 41.46 10.7001 41.4114 10.8168C41.3629 10.9336 41.2918 11.0396 41.2022 11.1286L32.2183 20.135C31.9802 20.399 31.6911 20.6118 31.3685 20.7604C31.0458 20.9089 30.6964 20.9902 30.3415 20.9992C29.9866 21.0082 29.6336 20.9447 29.3039 20.8127C28.9742 20.6806 28.6747 20.4828 28.4236 20.2311C28.1726 19.9794 27.9752 19.6792 27.8435 19.3487C27.7118 19.0182 27.6485 18.6642 27.6575 18.3084C27.6664 17.9526 27.7475 17.6024 27.8957 17.2789C28.0439 16.9555 28.2561 16.6657 28.5195 16.427L34.4451 10.4484L28.4813 4.46971C27.9946 3.97758 27.72 3.31356 27.7167 2.62054C27.7176 2.10258 27.8714 1.59647 28.1586 1.1659C28.4458 0.735344 28.8537 0.399578 29.3308 0.200871C29.8079 0.00216293 30.3331 -0.0506058 30.8401 0.0492039C31.3471 0.149015 31.8133 0.396946 32.18 0.761791L41.2022 9.76811Z" fill="url(#paint14_linear_36_76)"/>
<path d="M27.3739 9.76811C27.4635 9.85718 27.5346 9.96315 27.5831 10.0799C27.6316 10.1967 27.6566 10.3219 27.6566 10.4484C27.6566 10.5749 27.6316 10.7001 27.5831 10.8168C27.5346 10.9336 27.4635 11.0396 27.3739 11.1286L18.3899 20.135C18.1519 20.399 17.8628 20.6118 17.5401 20.7604C17.2175 20.9089 16.8681 20.9902 16.5132 20.9992C16.1583 21.0082 15.8052 20.9447 15.4755 20.8127C15.1458 20.6806 14.8464 20.4828 14.5953 20.2311C14.3443 19.9794 14.1469 19.6792 14.0152 19.3487C13.8835 19.0182 13.8202 18.6642 13.8292 18.3084C13.8381 17.9526 13.9192 17.6024 14.0674 17.2789C14.2156 16.9555 14.4278 16.6657 14.6912 16.427L20.6168 10.4484L14.653 4.46971C14.1663 3.97758 13.8917 3.31356 13.8884 2.62054C13.8893 2.10258 14.0431 1.59647 14.3303 1.1659C14.6175 0.735346 15.0253 0.399578 15.5025 0.200871C15.9796 0.00216293 16.5047 -0.0506058 17.0117 0.0492058C17.5187 0.149017 17.985 0.396948 18.3517 0.761791L27.3739 9.76811Z" fill="url(#paint15_linear_36_76)"/>
<path d="M13.5456 9.76811C13.6352 9.85718 13.7063 9.96315 13.7548 10.0799C13.8033 10.1967 13.8283 10.3219 13.8283 10.4484C13.8283 10.5749 13.8033 10.7001 13.7548 10.8168C13.7063 10.9336 13.6352 11.0396 13.5456 11.1286L4.56162 20.135C4.32357 20.399 4.03445 20.6118 3.71183 20.7604C3.3892 20.9089 3.03981 20.9902 2.68489 20.9992C2.32997 21.0082 1.97693 20.9447 1.64723 20.8127C1.31753 20.6806 1.01806 20.4828 0.76701 20.2311C0.515963 19.9794 0.318587 19.6792 0.186875 19.3487C0.0551637 19.0182 -0.00813266 18.6642 0.000835676 18.3084C0.00980401 17.9526 0.0908491 17.6024 0.239044 17.2789C0.387239 16.9555 0.599489 16.6657 0.862894 16.427L6.7885 10.4484L0.824665 4.46972C0.33794 3.97758 0.063382 3.31356 0.0600695 2.62054C0.0609957 2.10258 0.214744 1.59647 0.50196 1.1659C0.789176 0.735346 1.19702 0.39958 1.67417 0.200872C2.15132 0.00216484 2.67643 -0.0506058 3.18343 0.0492058C3.69043 0.149017 4.15664 0.396948 4.52339 0.761791L13.5456 9.76811Z" fill="url(#paint16_linear_36_76)"/>
<defs>
<linearGradient id="paint0_linear_36_76" x1="233.854" y1="21" x2="38.9756" y2="21" gradientUnits="userSpaceOnUse">
<stop stop-color="#FAFF00"/>
<stop offset="1" stop-color="#FAFF00" stop-opacity="0"/>
</linearGradient>
<linearGradient id="paint1_linear_36_76" x1="233.854" y1="21" x2="38.9756" y2="21" gradientUnits="userSpaceOnUse">
<stop stop-color="#FAFF00"/>
<stop offset="1" stop-color="#FAFF00" stop-opacity="0"/>
</linearGradient>
<linearGradient id="paint2_linear_36_76" x1="233.854" y1="21" x2="38.9756" y2="21" gradientUnits="userSpaceOnUse">
<stop stop-color="#FAFF00"/>
<stop offset="1" stop-color="#FAFF00" stop-opacity="0"/>
</linearGradient>
<linearGradient id="paint3_linear_36_76" x1="233.854" y1="21" x2="38.9756" y2="21" gradientUnits="userSpaceOnUse">
<stop stop-color="#FAFF00"/>
<stop offset="1" stop-color="#FAFF00" stop-opacity="0"/>
</linearGradient>
<linearGradient id="paint4_linear_36_76" x1="233.854" y1="21" x2="38.9756" y2="21" gradientUnits="userSpaceOnUse">
<stop stop-color="#FAFF00"/>
<stop offset="1" stop-color="#FAFF00" stop-opacity="0"/>
</linearGradient>
<linearGradient id="paint5_linear_36_76" x1="233.854" y1="21" x2="38.9756" y2="21" gradientUnits="userSpaceOnUse">
<stop stop-color="#FAFF00"/>
<stop offset="1" stop-color="#FAFF00" stop-opacity="0"/>
</linearGradient>
<linearGradient id="paint6_linear_36_76" x1="233.854" y1="21" x2="38.9756" y2="21" gradientUnits="userSpaceOnUse">
<stop stop-color="#FAFF00"/>
<stop offset="1" stop-color="#FAFF00" stop-opacity="0"/>
</linearGradient>
<linearGradient id="paint7_linear_36_76" x1="233.854" y1="21" x2="38.9756" y2="21" gradientUnits="userSpaceOnUse">
<stop stop-color="#FAFF00"/>
<stop offset="1" stop-color="#FAFF00" stop-opacity="0"/>
</linearGradient>
<linearGradient id="paint8_linear_36_76" x1="233.854" y1="21" x2="38.9756" y2="21" gradientUnits="userSpaceOnUse">
<stop stop-color="#FAFF00"/>
<stop offset="1" stop-color="#FAFF00" stop-opacity="0"/>
</linearGradient>
<linearGradient id="paint9_linear_36_76" x1="233.854" y1="21" x2="38.9756" y2="21" gradientUnits="userSpaceOnUse">
<stop stop-color="#FAFF00"/>
<stop offset="1" stop-color="#FAFF00" stop-opacity="0"/>
</linearGradient>
<linearGradient id="paint10_linear_36_76" x1="233.854" y1="21" x2="38.9756" y2="21" gradientUnits="userSpaceOnUse">
<stop stop-color="#FAFF00"/>
<stop offset="1" stop-color="#FAFF00" stop-opacity="0"/>
</linearGradient>
<linearGradient id="paint11_linear_36_76" x1="233.854" y1="21" x2="38.9756" y2="21" gradientUnits="userSpaceOnUse">
<stop stop-color="#FAFF00"/>
<stop offset="1" stop-color="#FAFF00" stop-opacity="0"/>
</linearGradient>
<linearGradient id="paint12_linear_36_76" x1="233.854" y1="21" x2="38.9756" y2="21" gradientUnits="userSpaceOnUse">
<stop stop-color="#FAFF00"/>
<stop offset="1" stop-color="#FAFF00" stop-opacity="0"/>
</linearGradient>
<linearGradient id="paint13_linear_36_76" x1="233.854" y1="21" x2="38.9756" y2="21" gradientUnits="userSpaceOnUse">
<stop stop-color="#FAFF00"/>
<stop offset="1" stop-color="#FAFF00" stop-opacity="0"/>
</linearGradient>
<linearGradient id="paint14_linear_36_76" x1="233.854" y1="21" x2="38.9756" y2="21" gradientUnits="userSpaceOnUse">
<stop stop-color="#FAFF00"/>
<stop offset="1" stop-color="#FAFF00" stop-opacity="0"/>
</linearGradient>
<linearGradient id="paint15_linear_36_76" x1="233.854" y1="21" x2="38.9756" y2="21" gradientUnits="userSpaceOnUse">
<stop stop-color="#FAFF00"/>
<stop offset="1" stop-color="#FAFF00" stop-opacity="0"/>
</linearGradient>
<linearGradient id="paint16_linear_36_76" x1="233.854" y1="21" x2="38.9756" y2="21" gradientUnits="userSpaceOnUse">
<stop stop-color="#FAFF00"/>
<stop offset="1" stop-color="#FAFF00" stop-opacity="0"/>
</linearGradient>
</defs>
</svg>
